<?xml version="1.0" encoding="UTF-8"?>
<svg width="1440px" height="1024px" viewBox="0 0 1440 1024" version="1.1" xmlns="http://www.w3.org/2000/svg" xmlns:xlink="http://www.w3.org/1999/xlink">
    <!-- Generator: Sketch 55.2 (78181) - https://sketchapp.com -->
    <title>Drawing Copy 19</title>
    <desc>Created with Sketch.</desc>
    <g id="Drawing-Copy-19" stroke="none" stroke-width="1" fill="none" fill-rule="evenodd">
        <rect fill="#180733" x="0" y="0" width="1440" height="1024"></rect>
        <path d="M1428,1064 L1037,1064 L1037,962 L1038,962 L1038,954 L1083,954 L1083,905 L1127,905 L1127,857 L1154,857 L1154,819 L1218,819 L1218,857 L1257,857 L1257,889 L1294,889 L1294,918 L1313,918 L1313,950 L1339,950 L1339,930 L1415,930 L1415,962 L1456,962 L1456,1007 L1493,1007 L1493,995 L1569,995 L1569,1052 L1504,1052 L1504,1064 L1428,1064 Z" id="Combined-Shape" fill="#0E0023"></path>
        <path d="M250,1056 L-141,1056 L-141,954 L-140,954 L-140,946 L-95,946 L-95,897 L-51,897 L-51,849 L-24,849 L-24,811 L40,811 L40,849 L79,849 L79,881 L116,881 L116,910 L135,910 L135,942 L161,942 L161,922 L237,922 L237,954 L278,954 L278,999 L315,999 L315,987 L391,987 L391,1044 L326,1044 L326,1056 L250,1056 Z" id="Combined-Shape-Copy" fill="#0E0023"></path>
        <polyline id="Path-2" stroke="#3F39D9" stroke-width="2" opacity="0.600000024" points="1303.11304 37 1300.63378 40.3014079 1297.93717 41.0002109 1295.75912 44.1121935 1291.82827 45.2776236 1289.53311 48.5442389 1285.82147 50.1147706 1283.00101 53.2009565 1278.95146 54.8220981 1277.32494 57.8872517 1273.3608 59.2648314 1271.14369 63.2317405 1267.95434 64.3079032 1266.44148 67.7199851 1262.99018 68.5157312 1260.95415 71.6552577 1257.19646 72.9007046 1255.24238 76.1023396 1251.42229 77.0612332 1248.48765 80.6323523 1245.90964 81.499191 1243.49592 84.7985595 1239.96083 86.6621032 1237 91.2138831"></polyline>
        <rect id="Rectangle" fill="#5652BF" x="891" y="100" width="4" height="4"></rect>
        <rect id="Rectangle-Copy-4" fill="#5652BF" x="1005" y="123" width="3" height="3"></rect>
        <rect id="Rectangle-Copy-6" fill="#1A1793" x="1154" y="143" width="4" height="4"></rect>
        <rect id="Rectangle-Copy-15" fill="#1A16A9" x="1071" y="121" width="5" height="5"></rect>
        <rect id="Rectangle-Copy-16" fill="#1A16A9" x="999" y="26" width="3" height="3"></rect>
        <rect id="Rectangle-Copy-7" fill="#1A1793" opacity="0.600000024" x="934" y="176" width="4" height="4"></rect>
        <rect id="Rectangle-Copy-33" fill="#5652BF" x="1005" y="123" width="3" height="3"></rect>
        <rect id="Rectangle-Copy-32" fill="#1A16A9" x="999" y="26" width="3" height="3"></rect>
        <rect id="Rectangle-Copy-31" fill="#1A1793" opacity="0.600000024" x="934" y="176" width="4" height="4"></rect>
        <rect id="Rectangle-Copy-39" fill="#5652BF" x="1186" y="471" width="3" height="3"></rect>
        <rect id="Rectangle-Copy-38" fill="#1A16A9" x="1180" y="374" width="3" height="3"></rect>
        <rect id="Rectangle-Copy-37" fill="#1A1793" opacity="0.600000024" x="1005" y="506" width="4" height="4"></rect>
        <rect id="Rectangle-Copy-36" fill="#5652BF" x="1093" y="404" width="3" height="3"></rect>
        <rect id="Rectangle-Copy-35" fill="#1A16A9" x="1282" y="385" width="3" height="3"></rect>
        <rect id="Rectangle-Copy-34" fill="#1A1793" opacity="0.600000024" x="1001" y="412" width="4" height="4"></rect>
        <rect id="Rectangle-Copy-5" fill="#1A1793" x="779" y="84" width="3" height="3"></rect>
        <rect id="Rectangle-Copy-11" fill="#1A1793" x="537" y="96" width="4" height="4"></rect>
        <rect id="Rectangle-Copy-10" fill="#1A1793" x="558" y="141" width="3" height="3"></rect>
        <rect id="Rectangle-Copy-13" fill="#1A1793" opacity="0.600000024" x="238" y="92" width="4" height="4"></rect>
        <rect id="Rectangle-Copy-12" fill="#5652BF" x="442" y="49" width="3" height="3"></rect>
        <rect id="Rectangle-Copy-9" fill="#1A1793" opacity="0.800000012" x="732" y="119" width="4" height="4"></rect>
        <rect id="Rectangle-Copy-8" fill="#1A1793" x="785" y="147" width="3" height="3"></rect>
        <rect id="Rectangle-Copy-30" fill="#1A1793" x="783" y="402" width="3" height="3"></rect>
        <rect id="Rectangle-Copy-29" fill="#1A1793" opacity="0.800000012" x="645" y="437" width="4" height="4"></rect>
        <rect id="Rectangle-Copy-28" fill="#1A1793" x="789" y="465" width="3" height="3"></rect>
        <rect id="Rectangle-Copy-14" fill="#1A1793" opacity="0.699999988" x="663" y="58" width="3" height="3"></rect>
        <rect id="Rectangle-Copy-27" fill="#5652BF" x="647" y="174" width="4" height="4"></rect>
        <rect id="Rectangle-Copy-26" fill="#5652BF" x="340" y="82" width="3" height="3"></rect>
        <rect id="Rectangle-Copy-25" fill="#5652BF" opacity="0.600000024" x="402" y="124" width="4" height="4"></rect>
        <rect id="Rectangle-Copy-23" fill="#1A1793" opacity="0.800000012" x="297" y="182" width="4" height="4"></rect>
        <rect id="Rectangle-Copy-22" fill="#1A1793" x="23" y="202" width="3" height="3"></rect>
        <rect id="Rectangle-Copy-18" fill="#1A1793" x="101" y="188" width="3" height="3"></rect>
        <rect id="Rectangle-Copy-17" fill="#5652BF" x="117" y="117" width="3" height="3"></rect>
        <rect id="Rectangle-Copy-21" fill="#1A1793" opacity="0.600000024" x="457" y="367" width="4" height="4"></rect>
        <rect id="Rectangle-Copy-24" fill="#1A1793" x="242" y="477" width="3" height="3"></rect>
        <rect id="Rectangle-Copy-20" fill="#1A1793" x="320" y="463" width="3" height="3"></rect>
        <rect id="Rectangle-Copy-19" fill="#5652BF" x="336" y="392" width="3" height="3"></rect>
        <polygon id="Rectangle" fill="#0E0023" points="391 990 501.951783 990 501.951783 999.219232 511.926216 999.219232 511.926216 1004.24894 523.275995 1004.24894 523.275995 990 671.693953 990 671.693953 996.246489 680.719349 996.246489 680.719349 1003.1774 695.791175 1003.1774 695.791175 990 706.647028 990 706.647028 980.506545 720.278047 980.506545 720.278047 990 808.442248 990 811.368117 989.598091 811.368117 981.168981 811.368117 972.2243 819.967278 972.2243 819.967278 981.168981 829.912555 981.168981 829.912555 990 842.449728 990 842.449728 999.219232 852.309915 999.219232 852.309915 990 915.5 990 1440 990 1440 1024 391 1024"></polygon>
        <rect id="Rectangle" fill="#0E0023" x="341" y="972" width="26" height="20"></rect>
        <rect id="Rectangle-Copy-53" fill="#0E0023" x="551" y="977" width="20" height="20"></rect>
        <rect id="Rectangle-Copy-55" fill="#0E0023" x="602" y="980" width="20" height="20"></rect>
        <rect id="Rectangle-Copy-56" fill="#0E0023" x="622" y="961" width="20" height="45"></rect>
        <rect id="Rectangle-Copy-54" fill="#0E0023" x="593" y="973" width="19" height="32"></rect>
        <rect id="Rectangle-Copy-59" fill="#0E0023" x="944" y="974" width="20" height="20"></rect>
        <rect id="Rectangle-Copy-58" fill="#0E0023" x="964" y="979" width="20" height="29"></rect>
        <rect id="Rectangle-Copy-57" fill="#0E0023" x="928" y="964" width="19" height="32"></rect>
        <rect id="Rectangle-Copy-50" fill="#0E0023" x="388" y="960" width="57" height="41"></rect>
        <rect id="Rectangle-Copy-51" fill="#0E0023" x="413" y="941" width="57" height="49"></rect>
        <rect id="Rectangle-Copy-52" fill="#0E0023" x="434" y="977" width="57" height="49"></rect>
    </g>
</svg>