<?xml version="1.0" encoding="UTF-8"?>
<svg width="24px" height="27px" viewBox="0 0 24 27" version="1.1" xmlns="http://www.w3.org/2000/svg" xmlns:xlink="http://www.w3.org/1999/xlink">
    <!-- Generator: Sketch 55.2 (78181) - https://sketchapp.com -->
    <title>Shape</title>
    <desc>Created with Sketch.</desc>
    <g id="Page-1" stroke="none" stroke-width="1" fill="none" fill-rule="evenodd">
        <g id="Drawing-Copy-18" transform="translate(-939.000000, -445.000000)" fill="#2EFFF2" fill-rule="nonzero">
            <path d="M952.242085,446.166943 C952.328263,445.548053 951.844917,445 951.219191,445 C950.593465,445 950.11012,445.551781 950.196298,446.166943 L951.219191,453.474316 L952.242085,446.166943 Z M939.862451,453.026926 L946.734197,455.800746 L940.885345,451.263463 C940.390759,450.879453 939.671361,451.021127 939.356625,451.561723 C939.045635,452.10232 939.281688,452.792046 939.862451,453.026926 L939.862451,453.026926 Z M939.645133,463.59652 C939.06437,463.8314 938.82457,464.521127 939.139307,465.061723 C939.454043,465.60232 940.173441,465.740265 940.668027,465.359983 L946.516879,460.826429 L939.645133,463.59652 Z M949.757915,470.833057 C949.671737,471.451947 950.155083,472 950.780809,472 C951.406535,472 951.88988,471.448219 951.803702,470.833057 L950.780809,463.525684 L949.757915,470.833057 L949.757915,470.833057 Z M962.133802,463.976802 L955.262056,461.202983 L961.110908,465.736537 C961.605494,466.120547 962.324892,465.978873 962.639628,465.438277 C962.954365,464.901408 962.714565,464.211682 962.133802,463.976802 L962.133802,463.976802 Z M962.354867,453.40348 C962.93563,453.1686 963.17543,452.478873 962.860693,451.938277 C962.545957,451.39768 961.826559,451.259735 961.331973,451.640017 L955.483121,456.177299 L962.354867,453.40348 Z M949.323279,455.297432 L947.322455,450.387324 C947.153846,449.973488 946.655513,449.801988 946.265839,450.025684 C945.876166,450.249379 945.775,450.763877 946.052268,451.118061 L949.323279,455.297432 Z M941.256284,458.343413 C941.256284,458.790804 941.653452,459.133803 942.099328,459.074151 L947.374911,458.343413 L942.103075,457.612676 C941.653452,457.553024 941.256284,457.896023 941.256284,458.343413 Z M945.992318,466.81773 C946.381992,467.041425 946.880325,466.869925 947.048934,466.456089 L949.049758,461.545982 L945.778747,465.725352 C945.501479,466.079536 945.602645,466.594035 945.992318,466.81773 L945.992318,466.81773 Z M952.676721,461.702568 L954.677545,466.612676 C954.846154,467.026512 955.344487,467.198012 955.734161,466.974316 C956.123834,466.750621 956.225,466.236123 955.947732,465.881939 L952.676721,461.702568 L952.676721,461.702568 Z M954.625089,458.656587 L959.896925,459.387324 C960.342802,459.450704 960.739969,459.103977 960.739969,458.656587 C960.739969,458.209196 960.342802,457.866197 959.896925,457.925849 L954.625089,458.656587 Z M956.007682,450.18227 C955.618008,449.958575 955.119675,450.130075 954.951066,450.543911 L952.950242,455.454018 L956.221253,451.274648 C956.498521,450.924192 956.397355,450.405965 956.007682,450.18227 L956.007682,450.18227 Z M942.492749,467.380696 L942.129303,466.64623 L941.762111,467.380696 L940.945295,467.5 L941.537299,468.074151 L941.398665,468.883181 L942.129303,468.499171 L942.859941,468.883181 L942.717561,468.074151 L943.309565,467.5 L942.492749,467.380696 Z" id="Shape"></path>
        </g>
    </g>
</svg>