<?xml version="1.0" encoding="UTF-8"?>
<svg width="992px" height="100px" viewBox="0 0 992 100" version="1.1" xmlns="http://www.w3.org/2000/svg" xmlns:xlink="http://www.w3.org/1999/xlink">
    <!-- Generator: Sketch 59.1 (86144) - https://sketch.com -->
    <title>Magicwand</title>
    <desc>Created with Sketch.</desc>
    <defs>
        <linearGradient x1="50%" y1="100%" x2="50%" y2="-12.8116821%" id="linearGradient-1">
            <stop stop-color="#5243FF" offset="0%"></stop>
            <stop stop-color="#067BA5" offset="100%"></stop>
        </linearGradient>
        <path d="M227,168 L227,80 L251.857143,80 L251.857143,92.5714286 L264.285714,92.5714286 L264.285714,105.142857 L276.714286,105.142857 L276.714286,92.5714286 L289.142857,92.5714286 L289.142857,80 L314,80 L314,168 L289.142857,168 L289.142857,130.285714 L276.714286,130.285714 L276.714286,142.857143 L264.285714,142.857143 L264.285714,130.285714 L251.857143,130.285714 L251.857143,168 L227,168 Z M339.428571,117.6 L339.428571,105 L401.571429,105 L401.571429,117.6 L414,117.6 L414,168 L339.428571,168 L339.428571,155.4 L327,155.4 L327,142.8 L339.428571,142.8 L339.428571,130.2 L389.142857,130.2 L389.142857,117.6 L339.428571,117.6 Z M389,155 L389,142 L352,142 L352,155 L389,155 Z M439.428571,117.5 L439.428571,105 L514,105 L514,167.5 L501.571429,167.5 L501.571429,180 L439.428571,180 L439.428571,167.5 L489.142857,167.5 L489.142857,155 L439.428571,155 L439.428571,142.5 L427,142.5 L427,117.5 L439.428571,117.5 Z M489,143 L489,118 L452,118 L452,143 L489,143 Z M551.5,117.6 L551.5,105 L589,105 L589,155.4 L614,155.4 L614,168 L539,168 L539,155.4 L564,155.4 L564,117.6 L551.5,117.6 Z M564,93 L564,80 L589,80 L589,93 L564,93 Z M639.428571,117.6 L639.428571,105 L714,105 L714,117.6 L651.857143,117.6 L651.857143,155.4 L714,155.4 L714,168 L639.428571,168 L639.428571,155.4 L627,155.4 L627,117.6 L639.428571,117.6 Z M827,155.4 L827,105 L839.428571,105 L839.428571,155.4 L851.857143,155.4 L851.857143,105 L876.714286,105 L876.714286,155.4 L889.142857,155.4 L889.142857,105 L914,105 L914,168 L839.428571,168 L839.428571,155.4 L827,155.4 Z M939.428571,117.6 L939.428571,105 L1001.57143,105 L1001.57143,117.6 L1014,117.6 L1014,168 L939.428571,168 L939.428571,155.4 L927,155.4 L927,142.8 L939.428571,142.8 L939.428571,130.2 L989.142857,130.2 L989.142857,117.6 L939.428571,117.6 Z M989,155 L989,142 L952,142 L952,155 L989,155 Z M1027,168 L1027,105 L1101.57143,105 L1101.57143,117.6 L1114,117.6 L1114,168 L1089.14286,168 L1089.14286,117.6 L1051.85714,117.6 L1051.85714,168 L1027,168 Z M1214,80 L1214,168 L1139.42857,168 L1139.42857,155.428571 L1127,155.428571 L1127,117.714286 L1139.42857,117.714286 L1139.42857,105.142857 L1189.14286,105.142857 L1189.14286,80 L1214,80 Z M1189,117 L1152,117 L1152,155 L1189,155 L1189,117 Z" id="path-2"></path>
        <filter x="-0.3%" y="-2.5%" width="101.0%" height="105.0%" filterUnits="objectBoundingBox" id="filter-3">
            <feOffset dx="5" dy="0" in="SourceAlpha" result="shadowOffsetOuter1"></feOffset>
            <feColorMatrix values="0 0 0 0 1   0 0 0 0 1   0 0 0 0 1  0 0 0 1 0" type="matrix" in="shadowOffsetOuter1"></feColorMatrix>
        </filter>
    </defs>
    <g id="Page-1" stroke="none" stroke-width="1" fill="none" fill-rule="evenodd">
        <g id="Drawing-Copy-20" transform="translate(-227.000000, -80.000000)" fill-rule="nonzero">
            <g id="Magicwand">
                <use fill="black" fill-opacity="1" filter="url(#filter-3)" xlink:href="#path-2"></use>
                <use fill="url(#linearGradient-1)" xlink:href="#path-2"></use>
            </g>
        </g>
    </g>
</svg>