<?xml version="1.0" encoding="UTF-8"?>
<svg width="868px" height="150px" viewBox="0 0 868 150" version="1.1" xmlns="http://www.w3.org/2000/svg" xmlns:xlink="http://www.w3.org/1999/xlink">
    <!-- Generator: Sketch 55.2 (78181) - https://sketchapp.com -->
    <title>Magicwand Copy</title>
    <desc>Created with Sketch.</desc>
    <defs>
        <linearGradient x1="50%" y1="100%" x2="50%" y2="0%" id="linearGradient-1">
            <stop stop-color="#5243FF" offset="0%"></stop>
            <stop stop-color="#067BA5" offset="100%"></stop>
        </linearGradient>
        <path d="M289,352.5 L289,240 L326.5,240 L326.5,258.75 L345.25,258.75 L345.25,315 L326.5,315 L326.5,258.75 L307.75,258.75 L307.75,352.5 L289,352.5 Z M364,352.5 L364,258.75 L345.25,258.75 L345.25,240 L382.75,240 L382.75,352.5 L364,352.5 Z M401.5,333.75 L401.5,296.25 L420.25,296.25 L420.25,333.75 L457.75,333.75 L457.75,296.25 L420.25,296.25 L420.25,277.5 L457.75,277.5 L457.75,296.25 L476.5,296.25 L476.5,352.5 L420.25,352.5 L420.25,333.75 L401.5,333.75 Z M514,352.5 L514,333.75 L495.25,333.75 L495.25,296.25 L514,296.25 L514,333.75 L551.5,333.75 L551.5,296.25 L514,296.25 L514,277.5 L570.25,277.5 L570.25,371.25 L551.5,371.25 L551.5,352.5 L514,352.5 Z M514,390 L514,371.25 L551.5,371.25 L551.5,390 L514,390 Z M607.75,352.5 L607.75,296.25 L589,296.25 L589,277.5 L626.5,277.5 L626.5,352.5 L607.75,352.5 Z M607.75,258.75 L607.75,240 L626.5,240 L626.5,258.75 L607.75,258.75 Z M664,352.5 L664,333.75 L645.25,333.75 L645.25,296.25 L664,296.25 L664,333.75 L701.5,333.75 L701.5,352.5 L664,352.5 Z M664,296.25 L664,277.5 L701.5,277.5 L701.5,296.25 L664,296.25 Z M795.25,352.5 L795.25,333.75 L776.5,333.75 L776.5,277.5 L795.25,277.5 L795.25,333.75 L814,333.75 L814,352.5 L795.25,352.5 Z M832.75,352.5 L832.75,333.75 L814,333.75 L814,277.5 L832.75,277.5 L832.75,333.75 L851.5,333.75 L851.5,352.5 L832.75,352.5 Z M851.5,333.75 L851.5,277.5 L870.25,277.5 L870.25,333.75 L851.5,333.75 Z M889,333.75 L889,296.25 L907.75,296.25 L907.75,333.75 L945.25,333.75 L945.25,296.25 L907.75,296.25 L907.75,277.5 L945.25,277.5 L945.25,296.25 L964,296.25 L964,352.5 L907.75,352.5 L907.75,333.75 L889,333.75 Z M982.75,352.5 L982.75,277.5 L1039,277.5 L1039,296.25 L1057.75,296.25 L1057.75,352.5 L1039,352.5 L1039,296.25 L1001.5,296.25 L1001.5,352.5 L982.75,352.5 Z M1076.5,333.75 L1076.5,296.25 L1095.25,296.25 L1095.25,333.75 L1132.75,333.75 L1132.75,296.25 L1095.25,296.25 L1095.25,277.5 L1132.75,277.5 L1132.75,240 L1151.5,240 L1151.5,352.5 L1095.25,352.5 L1095.25,333.75 L1076.5,333.75 Z" id="path-2"></path>
        <filter x="-0.3%" y="-1.7%" width="101.2%" height="103.3%" filterUnits="objectBoundingBox" id="filter-3">
            <feOffset dx="5" dy="0" in="SourceAlpha" result="shadowOffsetOuter1"></feOffset>
            <feColorMatrix values="0 0 0 0 1   0 0 0 0 1   0 0 0 0 1  0 0 0 0.900267701 0" type="matrix" in="shadowOffsetOuter1"></feColorMatrix>
        </filter>
    </defs>
    <g id="Page-1" stroke="none" stroke-width="1" fill="none" fill-rule="evenodd">
        <g id="Hover-Copy-2" transform="translate(-289.000000, -240.000000)" fill-rule="nonzero">
            <g id="Magicwand-Copy">
                <use fill="black" fill-opacity="1" filter="url(#filter-3)" xlink:href="#path-2"></use>
                <use fill="url(#linearGradient-1)" xlink:href="#path-2"></use>
            </g>
        </g>
    </g>
</svg>